<svg width="334" height="100" viewBox="0 0 334 100" fill="none" xmlns="http://www.w3.org/2000/svg">
<path d="M50 50H100V0L50 50Z" fill="white"/>
<path d="M50 100H100V50L50 100Z" fill="white"/>
<path d="M0 100H50V50L0 100Z" fill="white"/>
<path d="M0 50H50V0L0 50Z" fill="white"/>
<path d="M146.612 34.2238L145.832 38.8482H124L124.739 34.2238H146.612ZM133.357 23.338H138.692L131.264 68.0271C130.935 69.9369 131.004 71.4374 131.469 72.5287C131.961 73.62 132.7 74.3839 133.685 74.8205C134.67 75.257 135.764 75.4752 136.968 75.4752C137.679 75.5025 138.281 75.4616 138.774 75.3525C139.294 75.2433 139.745 75.1479 140.128 75.066L140.538 79.8541C139.964 80.0724 139.266 80.2634 138.445 80.4271C137.652 80.5908 136.708 80.659 135.614 80.6317C133.671 80.6317 131.866 80.2088 130.197 79.363C128.555 78.5173 127.297 77.2486 126.421 75.5571C125.573 73.8383 125.354 71.7512 125.765 69.2957L133.357 23.338Z" fill="white"/>
<path d="M146.696 79.9769L154.329 34.2238H159.541L158.309 41.3036H158.72C160.006 38.9846 161.921 37.1157 164.465 35.697C167.01 34.2783 169.718 33.5826 172.591 33.6099C173.028 33.5826 173.507 33.5826 174.027 33.6099C174.547 33.6099 174.998 33.6235 175.381 33.6508L174.437 39.0119C174.219 38.9846 173.808 38.93 173.206 38.8482C172.632 38.7663 171.989 38.7391 171.277 38.7663C168.897 38.7391 166.681 39.2301 164.629 40.2396C162.605 41.2491 160.909 42.6405 159.541 44.4139C158.2 46.1872 157.338 48.2062 156.955 50.4706L152.072 79.9769H146.696Z" fill="white"/>
<path d="M185.232 81C182.469 81 180.034 80.468 177.927 79.404C175.821 78.3126 174.248 76.7439 173.208 74.6977C172.196 72.6242 171.922 70.1142 172.387 67.1677C172.77 64.9032 173.509 63.007 174.603 61.4792C175.725 59.9241 177.161 58.6554 178.912 57.6733C180.663 56.6911 182.66 55.9135 184.904 55.3406C187.147 54.7404 189.582 54.2902 192.209 53.9901C194.835 53.6627 197.051 53.3762 198.857 53.1307C200.69 52.8851 202.112 52.5168 203.125 52.0257C204.164 51.5074 204.78 50.6752 204.971 49.5294L205.094 48.4653C205.614 45.3278 205.136 42.8724 203.658 41.099C202.208 39.2983 199.76 38.398 196.312 38.398C193.002 38.398 190.129 39.1347 187.694 40.6079C185.287 42.0539 183.495 43.7454 182.318 45.6825L177.64 43.8409C179.063 41.3582 180.814 39.3666 182.893 37.866C184.972 36.3655 187.202 35.2878 189.582 34.633C191.99 33.9509 194.356 33.6099 196.682 33.6099C198.433 33.6099 200.211 33.8418 202.017 34.3056C203.822 34.7421 205.45 35.5333 206.9 36.6792C208.35 37.7978 209.417 39.3666 210.101 41.3855C210.785 43.3771 210.867 45.9008 210.347 48.9564L205.177 79.9769H199.924L201.114 72.7333H200.786C199.937 74.0702 198.775 75.3798 197.297 76.662C195.847 77.917 194.11 78.9538 192.085 79.7723C190.088 80.5908 187.804 81 185.232 81ZM186.627 76.171C189.445 76.171 191.99 75.5435 194.26 74.2884C196.559 73.0334 198.446 71.3692 199.924 69.2957C201.428 67.1949 202.386 64.9032 202.796 62.4205L203.863 55.8317C203.426 56.2136 202.714 56.5547 201.729 56.8548C200.744 57.1549 199.636 57.4141 198.405 57.6323C197.202 57.8506 195.97 58.0416 194.712 58.2053C193.481 58.369 192.4 58.5054 191.47 58.6145C188.843 58.9419 186.559 59.4466 184.617 60.1287C182.674 60.8108 181.115 61.7384 179.938 62.9115C178.762 64.0847 178.023 65.5989 177.722 67.4541C177.257 70.2097 177.859 72.3514 179.528 73.8792C181.224 75.407 183.591 76.171 186.627 76.171Z" fill="white"/>
<path d="M232.715 80.9591C228.584 80.9318 225.164 79.895 222.455 77.8488C219.774 75.8026 217.9 73.0062 216.833 69.4594C215.766 65.9126 215.616 61.8748 216.382 57.3459C217.148 52.7351 218.666 48.6427 220.937 45.0686C223.235 41.4946 226.067 38.6981 229.432 36.6792C232.824 34.633 236.518 33.6099 240.512 33.6099C245.108 33.6099 248.802 34.9195 251.592 37.5386C254.383 40.1578 255.751 43.5954 255.696 47.8515H250.279C250.17 45.2051 249.212 42.9815 247.406 41.1809C245.628 39.3802 243.111 38.4662 239.855 38.4389C236.928 38.4389 234.192 39.2301 231.648 40.8125C229.103 42.3949 226.956 44.5912 225.205 47.4013C223.481 50.2114 222.318 53.4717 221.717 57.1822C221.087 60.8653 221.142 64.1393 221.881 67.004C222.647 69.8414 224.015 72.0649 225.985 73.6746C227.982 75.2843 230.471 76.0891 233.453 76.0891C235.478 76.0891 237.393 75.7071 239.199 74.9432C241.032 74.152 242.646 73.0607 244.041 71.6693C245.437 70.2506 246.504 68.5727 247.242 66.6356H252.577C251.702 69.4185 250.293 71.8876 248.35 74.0429C246.435 76.171 244.137 77.8488 241.456 79.0766C238.802 80.3043 235.888 80.9318 232.715 80.9591Z" fill="white"/>
<path d="M265.095 62.7069L266.162 55.7089H267.394L292.386 34.2238H299.239L274.493 55.4634L273.96 55.5452L265.095 62.7069ZM257.38 79.9769L267.558 19H272.852L262.756 79.9769H257.38ZM286.066 79.9769L271.251 56.5274L275.601 52.8442L292.755 79.9769H286.066Z" fill="white"/>
<path d="M334 44.332L328.911 45.6007C328.665 44.2365 328.2 43.0088 327.516 41.9175C326.832 40.7989 325.847 39.9122 324.561 39.2574C323.275 38.6026 321.593 38.2752 319.514 38.2752C316.422 38.3025 313.741 39.0664 311.47 40.567C309.227 42.0675 307.927 43.9773 307.571 46.2964C307.243 48.2334 307.64 49.8022 308.762 51.0026C309.911 52.2031 311.839 53.158 314.548 53.8673L321.237 55.5452C324.958 56.5001 327.612 58.0007 329.199 60.0469C330.785 62.0658 331.319 64.6167 330.799 67.6997C330.389 70.2642 329.294 72.5424 327.516 74.534C325.765 76.5256 323.522 78.0944 320.786 79.2403C318.05 80.3589 314.986 80.9318 311.593 80.9591C307.106 80.9318 303.577 79.9087 301.005 77.8898C298.434 75.8708 297.052 72.9516 296.861 69.132L302.195 67.9861C302.36 70.6598 303.29 72.6924 304.986 74.0838C306.682 75.4752 309.076 76.171 312.168 76.171C315.724 76.171 318.706 75.3661 321.114 73.7564C323.522 72.1468 324.917 70.1688 325.3 67.8224C325.628 65.9672 325.273 64.4257 324.233 63.198C323.221 61.943 321.483 61.0154 319.021 60.4152L311.88 58.6145C308.05 57.6323 305.342 56.1182 303.755 54.0719C302.168 51.9985 301.635 49.4339 302.154 46.3782C302.592 43.8682 303.646 41.6583 305.314 39.7485C307.011 37.8114 309.145 36.3109 311.716 35.2469C314.288 34.1556 317.12 33.6099 320.211 33.6099C324.452 33.6099 327.666 34.5648 329.855 36.4746C332.071 38.3844 333.453 41.0035 334 44.332Z" fill="white"/>
</svg>
